<svg xmlns="http://www.w3.org/2000/svg" width="401.964" height="47.872" viewBox="0 0 401.964 47.872">
  <g id="Group_118" data-name="Group 118" transform="translate(-2369 497.627)">
    <path id="Path_53" data-name="Path 53" d="M25.245-28.336a8.174,8.174,0,0,1,4.906,3.029A8.6,8.6,0,0,1,32-19.876a8.633,8.633,0,0,1-3.079,6.984q-3.079,2.578-8.586,2.578H3.968V-45.458h15.82q5.357,0,8.385,2.453A8.114,8.114,0,0,1,31.2-36.346a8.043,8.043,0,0,1-1.627,5.156A8.415,8.415,0,0,1,25.245-28.336Zm-12.716-2.9h5.607a4.964,4.964,0,0,0,3.229-.926,3.327,3.327,0,0,0,1.126-2.728,3.4,3.4,0,0,0-1.126-2.753,4.873,4.873,0,0,0-3.229-.951H12.529Zm6.308,14.018a5.077,5.077,0,0,0,3.329-.976,3.466,3.466,0,0,0,1.176-2.829,3.621,3.621,0,0,0-1.227-2.9,5.026,5.026,0,0,0-3.379-1.051H12.529v7.76ZM45.52-47.36v37.046H36.959V-47.36ZM64.444-9.913a15.419,15.419,0,0,1-7.384-1.752A12.83,12.83,0,0,1,51.9-16.672a14.959,14.959,0,0,1-1.877-7.61,14.839,14.839,0,0,1,1.9-7.584A12.908,12.908,0,0,1,57.134-36.9a15.566,15.566,0,0,1,7.409-1.752A15.566,15.566,0,0,1,71.953-36.9a12.908,12.908,0,0,1,5.207,5.031,14.839,14.839,0,0,1,1.9,7.584A14.687,14.687,0,0,1,77.134-16.7a13.033,13.033,0,0,1-5.257,5.031A15.714,15.714,0,0,1,64.444-9.913Zm0-7.409a5.577,5.577,0,0,0,4.18-1.8,7.16,7.16,0,0,0,1.727-5.156,7.293,7.293,0,0,0-1.677-5.156,5.42,5.42,0,0,0-4.13-1.8,5.433,5.433,0,0,0-4.155,1.777,7.347,7.347,0,0,0-1.652,5.181,7.437,7.437,0,0,0,1.627,5.156A5.266,5.266,0,0,0,64.444-17.322Zm31.89,7.409a15.419,15.419,0,0,1-7.384-1.752,12.83,12.83,0,0,1-5.156-5.006,14.959,14.959,0,0,1-1.877-7.61,14.839,14.839,0,0,1,1.9-7.584A12.908,12.908,0,0,1,89.024-36.9a15.567,15.567,0,0,1,7.409-1.752,15.566,15.566,0,0,1,7.409,1.752,12.908,12.908,0,0,1,5.207,5.031,14.839,14.839,0,0,1,1.9,7.584,14.687,14.687,0,0,1-1.927,7.584,13.033,13.033,0,0,1-5.257,5.031A15.714,15.714,0,0,1,96.333-9.913Zm0-7.409a5.577,5.577,0,0,0,4.18-1.8,7.16,7.16,0,0,0,1.727-5.156,7.293,7.293,0,0,0-1.677-5.156,5.42,5.42,0,0,0-4.13-1.8,5.433,5.433,0,0,0-4.155,1.777,7.347,7.347,0,0,0-1.652,5.181,7.437,7.437,0,0,0,1.627,5.156A5.266,5.266,0,0,0,96.333-17.322Zm54.818-21.227a11.048,11.048,0,0,1,8.285,3.154q3.079,3.154,3.079,8.761v16.32h-8.511V-25.483a5.772,5.772,0,0,0-1.427-4.18,5.209,5.209,0,0,0-3.93-1.477,5.209,5.209,0,0,0-3.93,1.477,5.771,5.771,0,0,0-1.427,4.18v15.169h-8.511V-25.483a5.771,5.771,0,0,0-1.427-4.18,5.209,5.209,0,0,0-3.93-1.477,5.209,5.209,0,0,0-3.93,1.477,5.771,5.771,0,0,0-1.427,4.18v15.169h-8.561V-38.249h8.561v3.5a9.163,9.163,0,0,1,3.4-2.778,10.7,10.7,0,0,1,4.756-1.026A11.569,11.569,0,0,1,137.86-37.2a9.69,9.69,0,0,1,3.88,3.855,11.253,11.253,0,0,1,3.955-3.755A10.686,10.686,0,0,1,151.152-38.549Zm16.42,14.418a15.41,15.41,0,0,1,1.7-7.384,12.35,12.35,0,0,1,4.681-4.931,12.839,12.839,0,0,1,6.633-1.752,12.174,12.174,0,0,1,6.258,1.552,10.341,10.341,0,0,1,3.955,3.9v-5.006h4.606v27.434H190.8V-15.42a10.733,10.733,0,0,1-4.03,3.98,12.056,12.056,0,0,1-6.233,1.577,12.436,12.436,0,0,1-6.608-1.8,12.64,12.64,0,0,1-4.656-5.056A15.747,15.747,0,0,1,167.572-24.131Zm23.229.05a11.154,11.154,0,0,0-1.252-5.407,8.838,8.838,0,0,0-3.379-3.529,9.206,9.206,0,0,0-4.681-1.227,9.218,9.218,0,0,0-4.656,1.2,8.717,8.717,0,0,0-3.354,3.5,11.154,11.154,0,0,0-1.252,5.407,11.411,11.411,0,0,0,1.252,5.482,8.854,8.854,0,0,0,3.354,3.554,9.071,9.071,0,0,0,4.656,1.227,9.206,9.206,0,0,0,4.681-1.227,8.8,8.8,0,0,0,3.379-3.554A11.3,11.3,0,0,0,190.8-24.081Zm17.872-9.912v16.17a3.847,3.847,0,0,0,.851,2.829,4.2,4.2,0,0,0,2.954.826h3.354v3.855h-4.105q-3.8,0-5.707-1.752t-1.9-5.757v-16.17h-3.554v-3.755h3.554v-6.909h4.556v6.909h7.159v3.755Zm52.015-4.255-7.559,27.935h-9.462l-4.406-18.123-4.556,18.123h-9.412l-7.609-27.935h8.561L230.2-18.274l4.706-19.975h9.061l4.756,19.875,3.9-19.875Zm15.97,28.335a15.419,15.419,0,0,1-7.384-1.752,12.83,12.83,0,0,1-5.156-5.006,14.959,14.959,0,0,1-1.877-7.61,14.839,14.839,0,0,1,1.9-7.584,12.908,12.908,0,0,1,5.207-5.031,15.566,15.566,0,0,1,7.409-1.752,15.566,15.566,0,0,1,7.409,1.752,12.908,12.908,0,0,1,5.207,5.031,14.839,14.839,0,0,1,1.9,7.584,14.687,14.687,0,0,1-1.927,7.584,13.033,13.033,0,0,1-5.257,5.031A15.714,15.714,0,0,1,276.659-9.913Zm0-7.409a5.577,5.577,0,0,0,4.18-1.8,7.16,7.16,0,0,0,1.727-5.156,7.293,7.293,0,0,0-1.677-5.156,5.42,5.42,0,0,0-4.13-1.8,5.433,5.433,0,0,0-4.155,1.777,7.347,7.347,0,0,0-1.652,5.181,7.437,7.437,0,0,0,1.627,5.156A5.266,5.266,0,0,0,276.659-17.322Zm27.735-16.27a11.293,11.293,0,0,1,3.755-3.63,9.682,9.682,0,0,1,5.006-1.327v9.061H310.8A7.212,7.212,0,0,0,306-28.111q-1.6,1.377-1.6,4.831v12.966h-8.561V-38.249h8.561Zm29.937,23.279L325.82-22.028v11.715h-8.561V-47.36h8.561v20.476l8.461-11.364h10.563L333.229-24.231l11.715,13.917Z" transform="translate(2426.021 -446.147)" fill="#603eff"/>
    <g id="Group_75" data-name="Group 75" transform="translate(2369 -497.627)">
      <path id="Subtraction_2" data-name="Subtraction 2" d="M28.283,47.872h0l-3.207-3.209a1.565,1.565,0,0,0-2.213,0l-3.124,3.124A24.255,24.255,0,0,1,19.994.08l2.868,2.867a1.565,1.565,0,0,0,2.213,0L28.022,0a24.254,24.254,0,0,1,.26,47.872ZM20.741,32.446a.8.8,0,0,0-.674.3c-.6.8-1.181,1.605-1.617,2.213a.767.767,0,0,0-.142.453.99.99,0,0,0,.024.221,1.7,1.7,0,0,0,1.106,1.3,1.431,1.431,0,0,0,.147.049,1.387,1.387,0,0,0,.141.03,1.162,1.162,0,0,0,.156.013h.051a.835.835,0,0,0,.615-.292l.011-.012.008-.01.005-.007.012-.015c.569-.715,1.1-1.445,1.589-2.128a1.111,1.111,0,0,0,.143-.354c.016-.057.032-.116.052-.171a1.813,1.813,0,0,0-1.538-1.59h-.089Zm-2.5-3.76h.034a2.261,2.261,0,0,1,1.607.726c.044.044.087.091.134.144a2.363,2.363,0,0,1,.618,1.6,2.734,2.734,0,0,1-.027.381l.124.021h.005c.079.014.153.027.227.037a2.535,2.535,0,0,1,2.21,2.46,2.133,2.133,0,0,1-.421,1.274,1.359,1.359,0,0,0-.136.257c-.022.048-.044.1-.071.153.141.046.279.091.414.136.285.095.554.185.83.262l.173.047.008,0,.006,0c.211.056.4.1.587.144a8.489,8.489,0,0,0,1.775.212h.22a2.658,2.658,0,0,0,2.035-1.2.224.224,0,0,0,.032-.069v0c.006-.016.012-.034.02-.056l-.287-.151-.032-.017c-.24-.127-.488-.258-.735-.382l-1.257-.633,0,0c-.558-.28-1.135-.57-1.7-.859a.348.348,0,0,1-.227-.308.453.453,0,0,1,.045-.184.363.363,0,0,1,.3-.239h.036a.5.5,0,0,1,.123.02l.025.008a5.021,5.021,0,0,1,.513.207l1.326.625c.694.328,1.413.667,2.121,1,.045.021.09.04.135.06a2.692,2.692,0,0,0,1,.226h.046a2.278,2.278,0,0,0,.348-.029l.015,0,.025,0a1.278,1.278,0,0,0,1.019-.8c.032-.076.057-.157.081-.235.017-.056.035-.113.055-.168a.588.588,0,0,0,.039-.208.489.489,0,0,0-.223-.393,6.353,6.353,0,0,0-.56-.386c-.448-.264-.917-.538-1.331-.779l-.007,0c-.466-.271-.947-.552-1.418-.831-.578-.341-1.153-.692-1.709-1.042a.366.366,0,0,1-.206-.3.32.32,0,0,1,.054-.167.449.449,0,0,1,.371-.247.431.431,0,0,1,.2.052c.124.064.244.129.355.192l1.024.579.02.011c1.176.665,2.393,1.353,3.586,2.036.063.036.128.069.193.1a1.993,1.993,0,0,0,.788.17h.045c.051,0,.094,0,.136,0s.1-.007.15-.013a1.426,1.426,0,0,0,1.312-1.448V30.5a1.311,1.311,0,0,0-.02-.263.408.408,0,0,0-.146-.246c-.45-.277-.906-.551-1.347-.816l-.005,0c-.441-.265-.9-.54-1.343-.814-1.089-.669-2.166-1.345-3.361-2.1a.338.338,0,0,1-.2-.287.473.473,0,0,1,.057-.2.256.256,0,0,1,.238-.165.491.491,0,0,1,.182.042l.008,0,.009,0a6.959,6.959,0,0,1,.823.4l.923.544.037.022c1.423.838,2.895,1.7,4.323,2.59l.1.059.069.038.007,0a2.254,2.254,0,0,0,1.042.278h.063a2.732,2.732,0,0,0,.3-.02l.013,0,.013,0a1.217,1.217,0,0,0,.937-.585,1.526,1.526,0,0,0,.24-.824,1.31,1.31,0,0,0-.429-.972c-.652-.592-1.366-1.19-2.121-1.778a65.093,65.093,0,0,0-11.085-7.093.5.5,0,0,0-.23-.063h-.009a.437.437,0,0,0-.108.017l-.032.01c-.317.107-.657.217-1,.3a.932.932,0,0,0-.56.379,8.338,8.338,0,0,1-2.271,2.161l-.13.078a5.193,5.193,0,0,1-2.624.793H16.75c-.137,0-.272-.007-.4-.018a1.265,1.265,0,0,1-1.131-1.2v-.015a3.663,3.663,0,0,1,.641-2c.354-.544.724-1.091,1.082-1.62l0,0q.27-.4.539-.8c.053-.079.1-.16.162-.254l.005-.009.082-.132c-.21-.037-.422-.072-.627-.106a7.254,7.254,0,0,1-3.641-1.289l-.04.056a.73.73,0,0,0-.042.062L12.32,16.548l-.01.017c-1.363,2.415-2.773,4.912-4.164,7.366a.217.217,0,0,0-.034.109.242.242,0,0,0,.074.146c.3.366.609.741.9,1.1L9.1,25.3l.488.6c.035.043.072.082.112.123l.059.062.124-.092.006,0c.1-.076.2-.149.3-.218.026-.019.055-.038.092-.062L10.3,25.7a1.942,1.942,0,0,1,1.042-.314h.045l.047,0,.059,0,.044,0a2.43,2.43,0,0,1,1.97,1.349c.045.082.088.164.134.252l.079.151.175-.23c.119-.158.231-.306.35-.452a1.8,1.8,0,0,1,.936-.635,2.2,2.2,0,0,1,.577-.079h.035a2.382,2.382,0,0,1,2.31,1.954,5.74,5.74,0,0,1,.058.662v.008c.005.1.01.207.018.311Zm-.125.849a.611.611,0,0,0-.451.169l-.008.008-.013.013-.008.009a.348.348,0,0,0-.025.031C16.834,30.79,16,31.888,15.2,32.977a1.006,1.006,0,0,0-.163.521s0,.006,0,.009,0,.006,0,.008q0,.04,0,.08a1.594,1.594,0,0,0,1.58,1.544.61.61,0,0,0,.061.006h.081a.983.983,0,0,0,.7-.47l.009-.013c.7-.936,1.4-1.909,2.1-2.892a1.06,1.06,0,0,0,.177-.513c0-.039,0-.078,0-.118A1.592,1.592,0,0,0,18.4,29.56c-.051-.008-.118-.018-.187-.023l-.068,0H18.12Zm-4.628,3.5h0a1.048,1.048,0,0,0,.846-.454l.115-.146q.183-.231.364-.463c.155-.2.3-.385.432-.569.624-.849,1.234-1.694,1.8-2.482a1.051,1.051,0,0,0,.253-.576.616.616,0,0,0,0-.063A1.667,1.667,0,0,0,16.729,27l-.011-.01-.015-.014-.069-.058,0,0,0,0a1.343,1.343,0,0,0-.76-.323l-.057,0h-.016a1.181,1.181,0,0,0-.886.484l-.044.056c-.739.97-1.469,1.968-2.175,2.934l-.043.059-.528.721a1.084,1.084,0,0,0-.163.342,1.032,1.032,0,0,0-.037.276,1.64,1.64,0,0,0,.915,1.407l.049.022a1.535,1.535,0,0,0,.61.145Zm-2.186-6.791a.868.868,0,0,0-.7.333l-.007.009-.024.031c-.378.507-.716.975-1.031,1.43a.816.816,0,0,0-.144.471,1.158,1.158,0,0,0,.033.265,1.735,1.735,0,0,0,1.2,1.3c.032.011.061.02.09.027a1.086,1.086,0,0,0,.266.038h.035a.832.832,0,0,0,.579-.252c.013-.013.026-.026.039-.04l.034-.039c.372-.449.733-.919,1.071-1.4a1.1,1.1,0,0,0,.139-.371c.015-.06.03-.122.049-.18a1.672,1.672,0,0,0-1.245-1.571l-.034-.008a1.483,1.483,0,0,0-.289-.04h-.059Zm12.238-8.863h.032a1.172,1.172,0,0,1,.483.134,56.41,56.41,0,0,1,6.033,3.421,81.156,81.156,0,0,1,7,5.139l.006,0c.018.015.033.026.046.035a.245.245,0,0,0,.127.047h.006a.193.193,0,0,0,.052-.007.3.3,0,0,0,.046-.018c.014-.008.031-.017.049-.03.086-.06.18-.113.27-.165a2.479,2.479,0,0,0,.408-.273c.415-.367.828-.75,1.227-1.12l.007-.006c.228-.211.463-.429.7-.642a.143.143,0,0,0,.057-.1.223.223,0,0,0-.047-.113c-.009-.014-.017-.026-.024-.04l-.9-1.586-.172-.3-.01-.018c-1.288-2.277-2.619-4.631-3.923-6.95-.094-.167-.188-.235-.326-.235a.559.559,0,0,0-.114.013l-.014,0-.014,0-.063.016-.139.033-.042.01-.069.016a5.633,5.633,0,0,1-1.193.162H33.01c-.095,0-.178,0-.255-.011h-.007l-.072-.006-.035,0-.034,0c-.046-.006-.084-.011-.12-.018L32.15,14.7l-.017,0c-.476-.078-.967-.159-1.445-.271l-.05-.012-.05-.012a19.154,19.154,0,0,0-4.372-.591h-.023c-.164,0-.318,0-.47.009l-.094,0c-.227.012-.456.021-.678.03-.5.019-1.026.039-1.534.1-.965.118-1.918.294-2.811.464a1.608,1.608,0,0,0-1.1.63l-1.229,1.768c-.59.849-1.2,1.727-1.81,2.6a1.952,1.952,0,0,0-.344,1.159c0,.039,0,.081,0,.131a.372.372,0,0,0,.327.4l.084.016c.033.005.076.012.119.015h.092a4.254,4.254,0,0,0,2.043-.567l.06-.036A7.518,7.518,0,0,0,21.3,18.188a.553.553,0,0,1,.239-.221c.263-.088.533-.172.794-.252.285-.088.58-.179.868-.277a1.05,1.05,0,0,1,.3-.058Zm14.6-6.783h0l-.057.021a.371.371,0,0,0-.072.031c-1.047.642-2,1.227-2.918,1.791a.269.269,0,0,0-.157.229.459.459,0,0,0,.07.217c.3.545.6,1.095.891,1.627l0,0c.422.775.859,1.577,1.3,2.359,1.135,2.009,2.294,4.038,3.416,6l.057.1.9,1.572.012.021.009.015.03.05c.051.084.089.131.142.139h.03a.649.649,0,0,0,.207-.091l.005,0,.005,0c.688-.386,1.393-.793,2.155-1.245.164-.1.322-.209.476-.318.086-.061.175-.124.264-.184a.213.213,0,0,0,.116-.168.265.265,0,0,0-.041-.133c-.051-.089-.1-.186-.139-.272s-.084-.174-.132-.258l-.752-1.345,0-.005c-1.516-2.71-3.084-5.513-4.632-8.265-.242-.43-.506-.856-.762-1.268l-.015-.023q-.135-.218-.27-.437a.689.689,0,0,0-.1-.115Zm-27.97-.01a.183.183,0,0,0-.15.1c-.045.068-.092.136-.138.2-.09.13-.183.263-.26.4-1.506,2.689-3.059,5.468-4.43,7.92L3.512,22.228c-.055.1-.113.194-.17.288l-.012.019-.065.108v.127c.02.019.038.039.057.059a.63.63,0,0,0,.128.115c.688.417,1.384.835,2.056,1.24l.087.053.771.464a.258.258,0,0,0,.132.044c.069,0,.127-.042.182-.133.068-.112.143-.226.208-.327.1-.151.2-.307.29-.466l.52-.912c1.163-2.039,2.365-4.147,3.537-6.229.511-.905,1.015-1.834,1.5-2.733l0-.007q.3-.561.61-1.122l.014-.024,0,0c.053-.092.107-.188-.036-.277-1.027-.634-2.049-1.27-3.037-1.885A.223.223,0,0,0,10.177,10.585Z" transform="translate(0 0)" fill="#603eff"/>
    </g>
  </g>
</svg>
